<svg width="23" height="22" viewBox="0 0 23 22" fill="none" xmlns="http://www.w3.org/2000/svg">
<g clip-path="url(#clip0_850_615)">
<path d="M5.71154 0.6875C5.71154 0.505164 5.63632 0.330295 5.50243 0.201364C5.36854 0.0724328 5.18695 0 4.9976 0C4.80825 0 4.62665 0.0724328 4.49276 0.201364C4.35887 0.330295 4.28365 0.505164 4.28365 0.6875V1.375H2.85577C2.09837 1.375 1.372 1.66473 0.836435 2.18046C0.300875 2.69618 0 3.39565 0 4.125L0 5.5H22.8462V4.125C22.8462 3.39565 22.5453 2.69618 22.0097 2.18046C21.4742 1.66473 20.7478 1.375 19.9904 1.375H18.5625V0.6875C18.5625 0.505164 18.4873 0.330295 18.3534 0.201364C18.2195 0.0724328 18.0379 0 17.8486 0C17.6592 0 17.4776 0.0724328 17.3437 0.201364C17.2098 0.330295 17.1346 0.505164 17.1346 0.6875V1.375H5.71154V0.6875ZM13.425 14.0883C14.3174 14.0883 15.1156 13.4228 15.1156 12.4658C15.1156 11.3218 14.3631 10.7745 13.4592 10.7745C12.6225 10.7745 11.7915 11.3066 11.7915 12.4383C11.7915 13.5616 12.5668 14.0883 13.425 14.0883Z" fill="#9747FF"/>
<path d="M22.8462 19.25V6.875H0V19.25C0 19.9793 0.300875 20.6788 0.836435 21.1945C1.372 21.7103 2.09837 22 2.85577 22H19.9904C20.7478 22 21.4742 21.7103 22.0097 21.1945C22.5453 20.6788 22.8462 19.9793 22.8462 19.25ZM13.3307 17.5863C11.7458 17.5863 10.9662 16.5316 10.899 15.6516H11.8743C11.9357 16.1604 12.4269 16.7791 13.375 16.7791C14.5801 16.7791 15.2327 15.6131 15.2384 13.8036H15.1998C14.9814 14.3729 14.2903 14.8899 13.2251 14.8899C12.0085 14.8899 10.8319 14.0511 10.8319 12.4561C10.8319 10.8928 12.0756 9.96875 13.3978 9.96875C15.0713 9.96875 16.1865 10.978 16.1865 13.6373C16.1865 16.1191 15.127 17.5849 13.3307 17.5849V17.5863ZM9.20414 10.1131V17.4446H8.23889V11.1086H8.22176C7.80767 11.3231 6.96094 11.8236 6.42548 12.177V11.22C7.02639 10.8146 7.6525 10.4449 8.30029 10.1131H9.20272H9.20414Z" fill="#9747FF"/>
</g>
<defs>
<clipPath id="clip0_850_615">
<rect width="22.8462" height="22" fill="white"/>
</clipPath>
</defs>
</svg>
