<svg width="16" height="21" viewBox="0 0 16 21" fill="none" xmlns="http://www.w3.org/2000/svg">
<path d="M10.6667 0V5.25H16L10.6667 0ZM9.33333 5.25V0H2C0.895417 0 0 0.881426 0 1.96875V19.0312C0 20.1182 0.895417 21 2 21H14C15.1046 21 16 20.1186 16 19.0312V6.5625H10.7042C9.92917 6.5625 9.33333 5.97598 9.33333 5.25ZM2.66667 2.95312C2.66667 2.77389 2.81792 2.625 3 2.625H6.33333C6.51667 2.625 6.66667 2.77389 6.66667 2.95312V3.60938C6.66667 3.78902 6.51667 3.9375 6.33333 3.9375H3C2.81792 3.9375 2.66667 3.78902 2.66667 3.60938V2.95312ZM2.66667 5.57812C2.66667 5.39766 2.81792 5.25 3 5.25H6.33333C6.51667 5.25 6.66667 5.39766 6.66667 5.57812V6.23438C6.66667 6.41484 6.51667 6.5625 6.33333 6.5625H3C2.81792 6.5625 2.66667 6.41484 2.66667 6.23438V5.57812ZM12.6667 15.75C13.0365 15.75 13.3333 16.0422 13.3333 16.4062C13.3333 16.7703 13.0375 17.0625 12.6667 17.0625H10.6979C10.0154 17.0625 9.39583 16.6882 9.08833 16.083C8.96854 15.8421 8.755 15.8164 8.66667 15.8164C8.57833 15.8164 8.36458 15.8421 8.25 16.0677L7.92708 16.6985C7.81667 16.923 7.54583 17.0625 7.33333 17.0625H7.2875C7.01667 17.042 6.7875 16.8677 6.70417 16.6113L6 14.5441L5.55833 15.8525C5.3125 16.5744 4.625 17.0625 3.84917 17.0625H3.33333C2.96375 17.0625 2.66667 16.7713 2.66667 16.4062C2.66667 16.0412 2.96375 15.75 3.33333 15.75H3.84917C4.05229 15.75 4.22938 15.6218 4.29167 15.4373L5.05208 13.1966C5.1875 12.7928 5.56667 12.5221 6 12.5221C6.43333 12.5221 6.8125 12.7938 6.94792 13.1988L7.52625 14.9063C8.34917 14.2398 9.78167 14.5064 10.2763 15.4854C10.3596 15.6495 10.5262 15.7521 10.6979 15.7521H12.6667V15.75Z" fill="#FFD233"/>
</svg>
