<svg width="25" height="25" viewBox="0 0 25 25" fill="none" xmlns="http://www.w3.org/2000/svg">
<path d="M20.833 22.5L13.333 19.3421L5.83301 22.5V4.60526C5.83301 3.44737 6.87147 2.5 8.1407 2.5H18.5253C19.7945 2.5 20.833 3.44737 20.833 4.60526V22.5Z" fill="#FF2525"/>
<path d="M13.3929 6.25C11.1774 6.25 9.375 8.05241 9.375 10.2679C9.375 12.4833 11.1774 14.2857 13.3929 14.2857C15.6083 14.2857 17.4107 12.4833 17.4107 10.2679C17.4107 8.05241 15.6083 6.25 13.3929 6.25ZM13.7946 12.2426V12.6786H12.9911V12.2446C12.0513 12.0972 11.7857 11.4403 11.7857 11.0714H12.5893C12.5937 11.1289 12.6532 11.4732 13.3929 11.4732C13.9473 11.4732 14.1964 11.2382 14.1964 11.0714C14.1964 10.9412 14.1964 10.6696 13.3929 10.6696C11.9946 10.6696 11.7857 9.91429 11.7857 9.46429C11.7857 8.94679 12.1992 8.42607 12.9911 8.29308V7.86196H13.7946V8.30754C14.4913 8.47228 14.7589 9.05205 14.7589 9.46429H14.3571L13.9554 9.47152C13.9497 9.31884 13.869 9.0625 13.3929 9.0625C12.8709 9.0625 12.5893 9.26982 12.5893 9.46429C12.5893 9.61455 12.5893 9.86607 13.3929 9.86607C14.7911 9.86607 15 10.6214 15 11.0714C15 11.5889 14.5866 12.1096 13.7946 12.2426Z" fill="white"/>
</svg>
