<svg width="31" height="30" viewBox="0 0 31 30" fill="none" xmlns="http://www.w3.org/2000/svg">
<path d="M4.25 7.8125C4.25 6.73506 4.67801 5.70175 5.43988 4.93988C6.20175 4.17801 7.23506 3.75 8.3125 3.75H22.6875C23.7649 3.75 24.7983 4.17801 25.5601 4.93988C26.322 5.70175 26.75 6.73506 26.75 7.8125V22.1875C26.75 23.2649 26.322 24.2983 25.5601 25.0601C24.7983 25.822 23.7649 26.25 22.6875 26.25H8.3125C7.23506 26.25 6.20175 25.822 5.43988 25.0601C4.67801 24.2983 4.25 23.2649 4.25 22.1875V7.8125ZM9.5625 17.5C9.31386 17.5 9.0754 17.5988 8.89959 17.7746C8.72377 17.9504 8.625 18.1889 8.625 18.4375C8.625 18.6861 8.72377 18.9246 8.89959 19.1004C9.0754 19.2762 9.31386 19.375 9.5625 19.375H13.9375C14.1861 19.375 14.4246 19.2762 14.6004 19.1004C14.7762 18.9246 14.875 18.6861 14.875 18.4375C14.875 18.1889 14.7762 17.9504 14.6004 17.7746C14.4246 17.5988 14.1861 17.5 13.9375 17.5H9.5625ZM8.625 11.5625C8.625 12.08 9.045 12.5 9.5625 12.5H13.9375C14.1861 12.5 14.4246 12.4012 14.6004 12.2254C14.7762 12.0496 14.875 11.8111 14.875 11.5625C14.875 11.3139 14.7762 11.0754 14.6004 10.8996C14.4246 10.7238 14.1861 10.625 13.9375 10.625H9.5625C9.31386 10.625 9.0754 10.7238 8.89959 10.8996C8.72377 11.0754 8.625 11.3139 8.625 11.5625ZM22.725 10.975C22.8906 10.7973 22.9808 10.5622 22.9765 10.3193C22.9722 10.0765 22.8738 9.84474 22.702 9.67297C22.5303 9.50121 22.2985 9.40282 22.0557 9.39853C21.8128 9.39425 21.5777 9.4844 21.4 9.65L19.5625 11.4875L18.975 10.9C18.8892 10.8079 18.7857 10.734 18.6707 10.6828C18.5557 10.6315 18.4315 10.604 18.3057 10.6018C18.1798 10.5995 18.0547 10.6227 17.938 10.6698C17.8213 10.717 17.7152 10.7872 17.6262 10.8762C17.5372 10.9652 17.467 11.0713 17.4198 11.188C17.3727 11.3047 17.3495 11.4298 17.3518 11.5557C17.354 11.6815 17.3815 11.8057 17.4328 11.9207C17.484 12.0357 17.5579 12.1392 17.65 12.225L18.9 13.475C19.0758 13.6506 19.3141 13.7492 19.5625 13.7492C19.8109 13.7492 20.0492 13.6506 20.225 13.475L22.725 10.975ZM22.725 16.525C22.5492 16.3494 22.3109 16.2508 22.0625 16.2508C21.8141 16.2508 21.5758 16.3494 21.4 16.525L19.5625 18.3625L18.975 17.775C18.8892 17.6829 18.7857 17.609 18.6707 17.5578C18.5557 17.5065 18.4315 17.479 18.3057 17.4768C18.1798 17.4745 18.0547 17.4977 17.938 17.5448C17.8213 17.592 17.7152 17.6622 17.6262 17.7512C17.5372 17.8402 17.467 17.9463 17.4198 18.063C17.3727 18.1797 17.3495 18.3048 17.3518 18.4307C17.354 18.5565 17.3815 18.6807 17.4328 18.7957C17.484 18.9107 17.5579 19.0142 17.65 19.1L18.9 20.35C19.0758 20.5256 19.3141 20.6242 19.5625 20.6242C19.8109 20.6242 20.0492 20.5256 20.225 20.35L22.725 17.85C22.9006 17.6742 22.9992 17.4359 22.9992 17.1875C22.9992 16.9391 22.9006 16.7008 22.725 16.525Z" fill="#FF47CB"/>
</svg>
