<svg width="22" height="27" viewBox="0 0 22 27" fill="none" xmlns="http://www.w3.org/2000/svg">
<path d="M2.75 8.77495C2.75 8.05887 2.98178 7.37211 3.39437 6.86576C3.80694 6.35941 4.36652 6.07495 4.95 6.07495H17.05C17.6335 6.07495 18.1931 6.35941 18.6056 6.86576C19.0182 7.37211 19.25 8.05887 19.25 8.77495V10.8H2.75V8.77495ZM2.75 12.15H19.25V18.225C19.25 18.941 19.0182 19.6278 18.6056 20.1341C18.1931 20.6405 17.6335 20.9249 17.05 20.9249H4.95C4.36652 20.9249 3.80694 20.6405 3.39437 20.1341C2.98178 19.6278 2.75 18.941 2.75 18.225V12.15ZM14.85 17.55C14.7041 17.55 14.5642 17.6211 14.4611 17.7477C14.3579 17.8742 14.3 18.0459 14.3 18.225C14.3 18.404 14.3579 18.5757 14.4611 18.7022C14.5642 18.8288 14.7041 18.9 14.85 18.9H17.05C17.1959 18.9 17.3358 18.8288 17.4389 18.7022C17.5421 18.5757 17.6 18.404 17.6 18.225C17.6 18.0459 17.5421 17.8742 17.4389 17.7477C17.3358 17.6211 17.1959 17.55 17.05 17.55H14.85Z" fill="#AD46EB"/>
</svg>
