<svg width="27" height="27" viewBox="0 0 27 27" fill="none" xmlns="http://www.w3.org/2000/svg">
<path d="M13.5 2.25C10.5163 2.25 7.65483 3.43526 5.54505 5.54505C3.43526 7.65483 2.25 10.5163 2.25 13.5C2.25 16.4837 3.43526 19.3452 5.54505 21.455C7.65483 23.5647 10.5163 24.75 13.5 24.75C16.4837 24.75 19.3452 23.5647 21.455 21.455C23.5647 19.3452 24.75 16.4837 24.75 13.5C24.75 10.5163 23.5647 7.65483 21.455 5.54505C19.3452 3.43526 16.4837 2.25 13.5 2.25ZM14.625 7.875C14.9234 7.875 15.2095 7.99353 15.4205 8.2045C15.6315 8.41548 15.75 8.70163 15.75 9V14.625C15.75 14.9234 15.6315 15.2095 15.4205 15.4205C15.2095 15.6315 14.9234 15.75 14.625 15.75H10.125C9.82663 15.75 9.54048 15.6315 9.3295 15.4205C9.11853 15.2095 9 14.9234 9 14.625C9 14.3266 9.11853 14.0405 9.3295 13.8295C9.54048 13.6185 9.82663 13.5 10.125 13.5H13.5V9C13.5 8.70163 13.6185 8.41548 13.8295 8.2045C14.0405 7.99353 14.3266 7.875 14.625 7.875Z" fill="#F24E1E"/>
</svg>
