<svg width="28" height="28" viewBox="0 0 28 28" fill="none" xmlns="http://www.w3.org/2000/svg">
<path opacity="0.5" d="M25.6663 11.6667H2.33301V22.1667C2.33301 23.0949 2.70176 23.9852 3.35813 24.6416C4.01451 25.2979 4.90475 25.6667 5.83301 25.6667H22.1663C23.0946 25.6667 23.9848 25.2979 24.6412 24.6416C25.2976 23.9852 25.6663 23.0949 25.6663 22.1667V11.6667ZM8.16634 9.33334C7.85692 9.33334 7.56018 9.21043 7.34138 8.99163C7.12259 8.77284 6.99967 8.4761 6.99967 8.16668V3.50001C6.99967 3.19059 7.12259 2.89384 7.34138 2.67505C7.56018 2.45626 7.85692 2.33334 8.16634 2.33334C8.47576 2.33334 8.77251 2.45626 8.9913 2.67505C9.21009 2.89384 9.33301 3.19059 9.33301 3.50001V8.16668C9.33301 8.4761 9.21009 8.77284 8.9913 8.99163C8.77251 9.21043 8.47576 9.33334 8.16634 9.33334ZM19.833 9.33334C19.5236 9.33334 19.2268 9.21043 19.008 8.99163C18.7893 8.77284 18.6663 8.4761 18.6663 8.16668V3.50001C18.6663 3.19059 18.7893 2.89384 19.008 2.67505C19.2268 2.45626 19.5236 2.33334 19.833 2.33334C20.1424 2.33334 20.4392 2.45626 20.658 2.67505C20.8768 2.89384 20.9997 3.19059 20.9997 3.50001V8.16668C20.9997 8.4761 20.8768 8.77284 20.658 8.99163C20.4392 9.21043 20.1424 9.33334 19.833 9.33334Z" fill="#407BFF"/>
<path d="M22.1663 4.66666H20.9997V8.16666C20.9997 8.47608 20.8768 8.77282 20.658 8.99161C20.4392 9.21041 20.1424 9.33332 19.833 9.33332C19.5236 9.33332 19.2268 9.21041 19.008 8.99161C18.7893 8.77282 18.6663 8.47608 18.6663 8.16666V4.66666H9.33301V8.16666C9.33301 8.47608 9.21009 8.77282 8.9913 8.99161C8.77251 9.21041 8.47576 9.33332 8.16634 9.33332C7.85692 9.33332 7.56018 9.21041 7.34138 8.99161C7.12259 8.77282 6.99967 8.47608 6.99967 8.16666V4.66666H5.83301C4.90475 4.66666 4.01451 5.03541 3.35813 5.69178C2.70176 6.34816 2.33301 7.2384 2.33301 8.16666V11.6667H25.6663V8.16666C25.6663 7.2384 25.2976 6.34816 24.6412 5.69178C23.9848 5.03541 23.0946 4.66666 22.1663 4.66666Z" fill="#277CB9"/>
<g clip-path="url(#clip0_850_576)">
<path fill-rule="evenodd" clip-rule="evenodd" d="M12.9854 16.2277C12.6935 16.2277 12.4135 16.3436 12.2071 16.55C12.0007 16.7564 11.8848 17.0364 11.8848 17.3283V19.5295C11.8848 19.8215 12.0007 20.1014 12.2071 20.3078C12.4135 20.5142 12.6935 20.6302 12.9854 20.6302H15.1867C15.4786 20.6302 15.7585 20.5142 15.9649 20.3078C16.1713 20.1014 16.2873 19.8215 16.2873 19.5295V17.3283C16.2873 17.0364 16.1713 16.7564 15.9649 16.55C15.7585 16.3436 15.4786 16.2277 15.1867 16.2277H12.9854ZM14.9071 18.1392C14.9269 18.1181 14.9423 18.0933 14.9525 18.0663C14.9627 18.0392 14.9674 18.0104 14.9665 17.9815C14.9656 17.9526 14.9589 17.9242 14.947 17.8978C14.9351 17.8715 14.9181 17.8477 14.897 17.828C14.8759 17.8082 14.8511 17.7928 14.824 17.7826C14.7969 17.7724 14.7681 17.7676 14.7392 17.7686C14.7103 17.7695 14.6819 17.7761 14.6556 17.7881C14.6292 17.8 14.6055 17.817 14.5857 17.8381L13.9071 18.5623L13.5718 18.2645C13.5279 18.228 13.4715 18.21 13.4145 18.2143C13.3576 18.2186 13.3045 18.2448 13.2666 18.2875C13.2286 18.3302 13.2088 18.386 13.2112 18.443C13.2136 18.5001 13.2381 18.554 13.2795 18.5934L13.7748 19.0336C13.8176 19.0717 13.8736 19.0915 13.9309 19.0889C13.9882 19.0863 14.0422 19.0615 14.0814 19.0197L14.9069 18.1392H14.9071Z" fill="#407BFF"/>
</g>
<g clip-path="url(#clip1_850_576)">
<path fill-rule="evenodd" clip-rule="evenodd" d="M6.79106 16.2277C6.49915 16.2277 6.2192 16.3436 6.0128 16.55C5.80639 16.7564 5.69043 17.0364 5.69043 17.3283V19.5295C5.69043 19.8215 5.80639 20.1014 6.0128 20.3078C6.2192 20.5142 6.49915 20.6302 6.79106 20.6302H8.99232C9.28422 20.6302 9.56417 20.5142 9.77058 20.3078C9.97699 20.1014 10.0929 19.8215 10.0929 19.5295V17.3283C10.0929 17.0364 9.97699 16.7564 9.77058 16.55C9.56417 16.3436 9.28422 16.2277 8.99232 16.2277H6.79106Z" fill="#407BFF"/>
</g>
<path fill-rule="evenodd" clip-rule="evenodd" d="M19.3252 16.2277C19.0333 16.2277 18.7534 16.3436 18.547 16.55C18.3406 16.7564 18.2246 17.0364 18.2246 17.3283V19.5295C18.2246 19.8215 18.3406 20.1014 18.547 20.3078C18.7534 20.5142 19.0333 20.6302 19.3252 20.6302H21.5265C21.8184 20.6302 22.0984 20.5142 22.3048 20.3078C22.5112 20.1014 22.6271 19.8215 22.6271 19.5295V17.3283C22.6271 17.0364 22.5112 16.7564 22.3048 16.55C22.0984 16.3436 21.8184 16.2277 21.5265 16.2277H19.3252Z" fill="#407BFF"/>
<defs>
<clipPath id="clip0_850_576">
<rect width="5.28302" height="5.28302" fill="white" transform="translate(11.4443 15.7874)"/>
</clipPath>
<clipPath id="clip1_850_576">
<rect width="5.28302" height="5.28302" fill="white" transform="translate(5.25 15.7874)"/>
</clipPath>
</defs>
</svg>
